<?xml version="1.0" encoding="utf-8"?>
<!-- Generator: Adobe Illustrator 19.0.0, SVG Export Plug-In . SVG Version: 6.00 Build 0)  -->
<svg version="1.1" id="Layer_1" xmlns="http://www.w3.org/2000/svg" xmlns:xlink="http://www.w3.org/1999/xlink" x="0px" y="0px"
	 viewBox="0 0 480.3 298.4" style="enable-background:new 0 0 480.3 298.4;" xml:space="preserve">
<style type="text/css">
	.st0{fill:#8CC63F;}
	.st1{fill:#CCCCCC;}
	.st2{fill:#3D3D3D;}
</style>
<g>
	<path d="M-668.6-407.5l-71.2,123.9h-30.8l-6.5-83.9l-48.9,83.9h-30.6l-10.1-123.9h29.7l6.4,87.1l50.8-87.1h26.6l6.6,87.8l50.6-87.8
		H-668.6z"/>
	<path d="M-645.6-285.8c-7,2.4-22.7,3.6-31,3.6c-10.7,0-19.7-2.1-26.9-6.3c-7.2-4.2-12.2-10-14.8-17.4c-2.6-7.4-2.8-15.9-0.5-25.3
		c2.3-9.3,6.6-17.7,12.9-25.2c6.3-7.5,13.8-13.3,22.6-17.5c8.8-4.2,17.9-6.3,27.5-6.3c9.3,0,17.3,2,23.8,6c6.6,4,11.1,9.8,13.5,17.3
		c2.5,7.5,2.5,16.2,0,26.1c-0.1,0.4-0.9,2.8-2.4,7.4l-72,0c-0.2,5.9,1.8,10.6,5.7,14c4,3.4,9.6,5.1,16.8,5.1c5,0,20.6-0.7,24.8-2.2
		V-285.8z M-677.9-354.1c-5.1,3.5-8.9,8.4-11.4,14.5h46.9c0.5-6-0.9-10.8-4.2-14.4c-3.4-3.6-8.1-5.4-14.2-5.4
		C-667.1-359.4-672.8-357.6-677.9-354.1z"/>
	<path class="st0" d="M-587.3-456.1l-34.6,202h212.2l34.6-202H-587.3z M-510-308.8l10-55.6c2-11.2-5.4-20.3-16.6-20.3
		c-11.2,0-21.9,9.1-24,20.3l-10,55.6h-16l7.7-42.7H-571l-1.7,9.7h-16l4.6-25.7h28.3c4.9-18.6,23.2-33.2,42.1-33.2
		c20,0,33.4,16.3,29.7,36.3l-10,55.6H-510z M-422.2-373l2-10.9h-10c-8.9,0-18.1,5.5-24.6,14.7c-3.7,5.3-6.3,11.3-7.4,17.6l-5.1,28.1
		h49.1l-4.8,26.3h-14.7l2.1-11.6h-49.1l7.7-42.9c1.6-8.6,5.2-17.1,10.4-24.5c9.9-13.9,24.9-22.6,39.1-22.6h24.7l-4.6,25.7H-422.2z"
		/>
	<polygon class="st0" points="-364.9,-500.4 -371.5,-461.7 -330.9,-461.7 -324.3,-500.4 	"/>
</g>
<g>
	<path class="st1" d="M-182,1139.8v343.6c0,13.2-10.7,23.9-23.9,23.9h-343.6c-13.2,0-23.9-10.7-23.9-23.9v-343.6
		c0-13.2,10.7-23.9,23.9-23.9h343.6C-192.7,1115.9-182,1126.6-182,1139.8z M-210.9,1312.4c0-92.3-74.8-167.1-167.1-167.1
		s-167.1,74.8-167.1,167.1c0,92.3,74.8,167.1,167.1,167.1S-210.9,1404.7-210.9,1312.4z"/>
	<rect x="-353.1" y="1275" class="st1" width="51.3" height="12.4"/>
	<path class="st0" d="M-362.9,1321.4c-6.9-11.1-19.2-18.5-33.2-18.5c-20.4,0-37.2,15.7-38.9,35.7h-30.5v27.7h17.3v-10.4h13.1v46
		h17.3V1342c0-12.1,9.8-21.9,21.9-21.9c12.1,0,21.9,9.8,21.9,21.9v7.4c-0.2,2.1-0.4,4.3-0.4,6.4v46.2h52.9v12.5h15.9v-28.3H-357
		v-42.3c0.7-2.4,1.7-4.8,2.8-7c5.3-9.9,14.1-15.9,23.7-15.9h10.7v11.8h15.9v-27.7h-26.6C-342.8,1305.1-354.6,1311.2-362.9,1321.4z"
		/>
	<polygon class="st1" points="-431.8,1287.4 -416.6,1242.1 -401.8,1287.4 -385.2,1287.4 -363.3,1220.5 -378.1,1220.5 -393.7,1267.9 
		-409,1220.5 -423.4,1220.5 -439.1,1267.5 -454.2,1220.5 -470.3,1220.5 -448.3,1287.4 	"/>
	<rect x="-353.1" y="1220.5" class="st1" width="51.3" height="12.4"/>
	<rect x="-353.1" y="1247.5" class="st1" width="51.3" height="12"/>
</g>
<rect x="203.7" y="1275" class="st2" width="51.3" height="12.4"/>
<g>
	<path class="st2" d="M374.8,1139.8v343.6c0,13.2-10.7,23.9-23.9,23.9H7.2c-13.2,0-23.9-10.7-23.9-23.9v-343.6
		c0-13.2,10.7-23.9,23.9-23.9h343.6C364.1,1115.9,374.8,1126.6,374.8,1139.8z M345.8,1312.4c0-92.3-74.8-167.1-167.1-167.1
		c-92.3,0-167.1,74.8-167.1,167.1c0,92.3,74.8,167.1,167.1,167.1C271,1479.5,345.8,1404.7,345.8,1312.4z"/>
	<path class="st0" d="M193.9,1321.4c-6.9-11.1-19.2-18.5-33.2-18.5c-20.4,0-37.2,15.7-38.9,35.7H91.2v27.7h17.3v-10.4h13.1v46h17.3
		V1342c0-12.1,9.8-21.9,21.9-21.9c12.1,0,21.9,9.8,21.9,21.9v7.4c-0.2,2.1-0.4,4.3-0.4,6.4v46.2h52.9v12.5H251v-28.3h-51.2v-42.3
		c0.7-2.4,1.7-4.8,2.8-7c5.3-9.9,14.1-15.9,23.7-15.9H237v11.8h15.9v-27.7h-26.6C213.9,1305.1,202.1,1311.2,193.9,1321.4z"/>
	<polygon class="st2" points="125,1287.4 140.2,1242.1 154.9,1287.4 171.5,1287.4 193.4,1220.5 178.6,1220.5 163,1267.9 
		147.7,1220.5 133.4,1220.5 117.6,1267.5 102.5,1220.5 86.5,1220.5 108.5,1287.4 	"/>
</g>
<rect x="203.7" y="1220.5" class="st2" width="51.3" height="12.4"/>
<rect x="203.7" y="1247.5" class="st2" width="51.3" height="12"/>
<g>
	<path d="M931.5,1139.8v343.6c0,13.2-10.7,23.9-23.9,23.9H564c-13.2,0-23.9-10.7-23.9-23.9v-343.6c0-13.2,10.7-23.9,23.9-23.9h343.6
		C920.8,1115.9,931.5,1126.6,931.5,1139.8z M902.6,1312.4c0-92.3-74.8-167.1-167.1-167.1c-92.3,0-167.1,74.8-167.1,167.1
		c0,92.3,74.8,167.1,167.1,167.1C827.8,1479.5,902.6,1404.7,902.6,1312.4z"/>
	<rect x="760.4" y="1275" width="51.3" height="12.4"/>
	<path class="st0" d="M750.6,1321.4c-6.9-11.1-19.2-18.5-33.2-18.5c-20.4,0-37.2,15.7-38.9,35.7H648v27.7h17.3v-10.4h13.1v46h17.3
		V1342c0-12.1,9.8-21.9,21.9-21.9c12.1,0,21.9,9.8,21.9,21.9v7.4c-0.2,2.1-0.4,4.3-0.4,6.4v46.2h52.9v12.5h15.9v-28.3h-51.2v-42.3
		c0.7-2.4,1.7-4.8,2.8-7c5.3-9.9,14.1-15.9,23.7-15.9h10.7v11.8h15.9v-27.7H783C770.7,1305.1,758.9,1311.2,750.6,1321.4z"/>
	<polygon points="681.7,1287.4 696.9,1242.1 711.6,1287.4 728.3,1287.4 750.1,1220.5 735.3,1220.5 719.8,1267.9 704.5,1220.5 
		690.1,1220.5 674.4,1267.5 659.3,1220.5 643.2,1220.5 665.2,1287.4 	"/>
	<rect x="760.4" y="1220.5" width="51.3" height="12.4"/>
	<rect x="760.4" y="1247.5" width="51.3" height="12"/>
</g>
<g>
	<path d="M955.5-421.1l-43.1,75c-2.4,4.1-6.8,6.7-11.6,6.7h-3.7c-7,0-12.8-5.4-13.3-12.3l-3.3-42.8c-0.2-2.9-4.1-3.8-5.6-1.3
		l-29,49.7c-2.4,4.1-6.8,6.6-11.5,6.6h-3.6c-6.9,0-12.7-5.3-13.3-12.3l-6-73.3c-0.4-5.3,3.8-9.9,9.1-9.9h4.5c4.8,0,8.8,3.7,9.1,8.5
		l3.7,49.6c0.2,2.7,3.8,3.6,5.2,1.2l30.6-52.5c2.4-4.2,6.9-6.8,11.8-6.8l0,0c7.1,0,13,5.5,13.6,12.6l3.5,46c0.2,2.7,3.8,3.6,5.2,1.2
		l31.8-55.2c1.6-2.8,4.7-4.6,7.9-4.6l0,0C954.6-434.9,959.1-427.2,955.5-421.1z"/>
	<path d="M999-347.7c0,4.1-3,7.5-7,8.1c-5.7,0.8-12.6,1.2-16.9,1.2c-8.3,0-15.2-1.6-20.8-4.8c-5.6-3.2-9.4-7.7-11.4-13.4
		c-2-5.7-2.2-12.2-0.4-19.5c1.8-7.2,5.1-13.7,9.9-19.4c4.8-5.8,10.6-10.3,17.4-13.5c6.8-3.2,13.8-4.8,21.2-4.8
		c7.2,0,13.3,1.5,18.4,4.6c5.1,3.1,8.5,7.5,10.4,13.3c1.9,5.8,1.9,12.5,0,20.1c0,0,0,0,0,0c-0.9,3.4-4.1,5.7-7.6,5.7l-49.7,0
		c-0.1,4.5,1.3,8.1,4.4,10.8c3.1,2.6,7.4,4,12.9,4c2,0,6.2-0.2,10.3-0.5C995-356.2,999-352.4,999-347.7L999-347.7z M974.1-393.7
		c-3.9,2.7-6.9,6.5-8.8,11.2h36.1c0.4-4.6-0.7-8.3-3.3-11.1c-2.6-2.8-6.2-4.2-11-4.2C982.4-397.8,978.1-396.4,974.1-393.7z"/>
	<path class="st0" d="M1155.1-421.1c2-4.3,4.3-8.5,7-12.5c1.8-2.7,3.8-5.2,6-7.7c-1.6-3.9-3.6-7.3-6-10.2c-7.7-9.4-19.2-14-34.6-14
		c-15.4,0-27.2,4.5-35.2,13.5c-7.2,8.1-11.5,20.2-12.6,36.3c-0.2,3.2-2.9,5.6-6,5.6h-33.5c0.1,1.7,0.2,3.2,0.2,4.5
		c0,4.2-0.4,8.3-1.2,12.5l0,0.1c-1.4,7,2.4,14.1,9.1,16.8l3,1.2c1.6-3.1,2.9-6.3,3.8-9.6c0.9-3.3,1.7-6.7,2.3-10.4h16
		c3.3,0,6,2.7,6,6v43.9c0,4.9,3.9,8.8,8.8,8.8l0,0c4.9,0,8.8-3.9,8.8-8.8v-63.2c0-14.3,2.4-24.8,7.3-31.4c4.8-6.6,12.1-9.9,21.8-9.9
		c10,0,17.6,3.4,22.6,10.3C1151.8-434.9,1154-428.8,1155.1-421.1z"/>
	<path class="st0" d="M1253-334.3l0-0.1c-0.8-4.1-1.2-8.3-1.2-12.5c0-1.1,0.1-2.6,0.2-4.5h-78.3h-1c-0.3-5-0.6-9.9-0.9-14.7
		c-0.2-4.8-0.4,2-0.4-2.4c0-11.7,0.5-9.9,1.6-18.7c0.2-1.8,0.5-3.6,0.7-5.3c1-6.7,2.4-12.6,4.1-17.8c2.2-6.5,5-12,8.4-16.3
		c3.4-4.4,7.4-7.9,12.1-10.6c4.7-2.7,10.1-4.6,16.1-5.8c6-1.2,12.8-1.9,20.4-2.1c0.6,3.7,1.3,7.2,2.3,10.5c0.9,3.3,2.2,6.5,3.8,9.5
		l3-1.2c6.6-2.7,10.4-9.7,9-16.8l0-0.1c-0.8-4.1-1.2-8.3-1.2-12.5c0-1.3,0.1-3,0.2-5.1h-6.8c-9,0.1-17.5,0.5-25.5,1.4
		c-8,0.8-15.4,2.5-22.2,5.1c-3,1.1-5.8,2.5-8.4,4.1c-6.7,4.4-12.6,9.8-17.7,16.1c-0.1,0.2-0.3,0.4-0.4,0.6c0,0,0,0,0,0
		c-1,1.3-1.9,2.5-2.9,3.9c-0.7,1.1-1.5,2.2-2.1,3.3c-6.6,10.8-9.7,23.5-9.7,36.2l0,0v36.3c0,9.7,7.9,17.6,17.6,17.6l0,0h61.2
		c0.6,3.6,1.3,7.1,2.2,10.4c0.9,3.3,2.2,6.5,3.8,9.6l3-1.2C1250.6-320.2,1254.4-327.2,1253-334.3z"/>
</g>
<g>
	<path class="st2" d="M955.5,145.5l-43.1,75c-2.4,4.1-6.8,6.7-11.6,6.7h-3.7c-7,0-12.8-5.4-13.3-12.3l-3.3-42.8
		c-0.2-2.9-4.1-3.8-5.6-1.3l-29,49.7c-2.4,4.1-6.8,6.6-11.5,6.6h-3.6c-6.9,0-12.7-5.3-13.3-12.3l-6-73.3c-0.4-5.3,3.8-9.9,9.1-9.9
		h4.5c4.8,0,8.8,3.7,9.1,8.5l3.7,49.6c0.2,2.7,3.8,3.6,5.2,1.2l30.6-52.5c2.4-4.2,6.9-6.8,11.8-6.8l0,0c7.1,0,13,5.5,13.6,12.6
		l3.5,46c0.2,2.7,3.8,3.6,5.2,1.2l31.8-55.2c1.6-2.8,4.7-4.6,7.9-4.6l0,0C954.6,131.7,959.1,139.4,955.5,145.5z"/>
	<path class="st2" d="M999,218.9c0,4.1-3,7.5-7,8.1c-5.7,0.8-12.6,1.2-16.9,1.2c-8.3,0-15.2-1.6-20.8-4.8
		c-5.6-3.2-9.4-7.7-11.4-13.4c-2-5.7-2.2-12.2-0.4-19.5c1.8-7.2,5.1-13.7,9.9-19.4c4.8-5.8,10.6-10.3,17.4-13.5
		c6.8-3.2,13.8-4.8,21.2-4.8c7.2,0,13.3,1.5,18.4,4.6c5.1,3.1,8.5,7.5,10.4,13.3c1.9,5.8,1.9,12.5,0,20.1c0,0,0,0,0,0
		c-0.9,3.4-4.1,5.7-7.6,5.7h-49.7c-0.1,4.5,1.3,8.1,4.4,10.8c3.1,2.6,7.4,4,12.9,4c2,0,6.2-0.2,10.3-0.5
		C995,210.4,999,214.2,999,218.9L999,218.9z M974.1,172.9c-3.9,2.7-6.9,6.5-8.8,11.2h36.1c0.4-4.6-0.7-8.3-3.3-11.1
		c-2.6-2.8-6.2-4.2-11-4.2C982.4,168.8,978.1,170.2,974.1,172.9z"/>
	<path class="st0" d="M1155.1,145.5c2-4.3,4.3-8.5,7-12.5c1.8-2.7,3.8-5.2,6-7.7c-1.6-3.9-3.6-7.3-6-10.2c-7.7-9.4-19.2-14-34.6-14
		c-15.4,0-27.2,4.5-35.2,13.5c-7.2,8.1-11.5,20.2-12.6,36.3c-0.2,3.2-2.9,5.6-6,5.6h-33.5c0.1,1.7,0.2,3.2,0.2,4.5
		c0,4.2-0.4,8.3-1.2,12.5l0,0.1c-1.4,7,2.4,14.1,9.1,16.8l3,1.2c1.6-3.1,2.9-6.3,3.8-9.6c0.9-3.3,1.7-6.7,2.3-10.4h16
		c3.3,0,6,2.7,6,6v43.9c0,4.9,3.9,8.8,8.8,8.8l0,0c4.9,0,8.8-3.9,8.8-8.8v-63.2c0-14.3,2.4-24.8,7.3-31.4c4.8-6.6,12.1-9.9,21.8-9.9
		c10,0,17.6,3.4,22.6,10.3C1151.8,131.7,1154,137.8,1155.1,145.5z"/>
	<path class="st0" d="M1253,232.3l0-0.1c-0.8-4.1-1.2-8.3-1.2-12.5c0-1.1,0.1-2.6,0.2-4.5h-78.3h-1c-0.3-5-0.6-9.9-0.9-14.7
		c-0.2-4.8-0.4,2-0.4-2.4c0-11.7,0.5-9.9,1.6-18.7c0.2-1.8,0.5-3.6,0.7-5.3c1-6.7,2.4-12.6,4.1-17.8c2.2-6.5,5-12,8.4-16.3
		c3.4-4.4,7.4-7.9,12.1-10.6c4.7-2.7,10.1-4.6,16.1-5.8c6-1.2,12.8-1.9,20.4-2.1c0.6,3.7,1.3,7.2,2.3,10.5c0.9,3.3,2.2,6.5,3.8,9.5
		l3-1.2c6.6-2.7,10.4-9.7,9-16.8l0-0.1c-0.8-4.1-1.2-8.3-1.2-12.5c0-1.3,0.1-3,0.2-5.1h-6.8c-9,0.1-17.5,0.5-25.5,1.4
		c-8,0.8-15.4,2.5-22.2,5.1c-3,1.1-5.8,2.5-8.4,4.1c-6.7,4.4-12.6,9.8-17.7,16.1c-0.1,0.2-0.3,0.4-0.4,0.6c0,0,0,0,0,0
		c-1,1.3-1.9,2.5-2.9,3.9c-0.7,1.1-1.5,2.2-2.1,3.3c-6.6,10.8-9.7,23.5-9.7,36.2l0,0v36.3c0,9.7,7.9,17.6,17.6,17.6l0,0h61.2
		c0.6,3.6,1.3,7.1,2.2,10.4c0.9,3.3,2.2,6.5,3.8,9.6l3-1.2C1250.6,246.4,1254.4,239.4,1253,232.3z"/>
</g>
<g>
	<path class="st1" d="M955.5,712.1l-43.1,75c-2.4,4.1-6.8,6.7-11.6,6.7h-3.7c-7,0-12.8-5.4-13.3-12.3l-3.3-42.8
		c-0.2-2.9-4.1-3.8-5.6-1.3l-29,49.7c-2.4,4.1-6.8,6.6-11.5,6.6h-3.6c-6.9,0-12.7-5.3-13.3-12.3l-6-73.3c-0.4-5.3,3.8-9.9,9.1-9.9
		h4.5c4.8,0,8.8,3.7,9.1,8.5l3.7,49.6c0.2,2.7,3.8,3.6,5.2,1.2l30.6-52.5c2.4-4.2,6.9-6.8,11.8-6.8l0,0c7.1,0,13,5.5,13.6,12.6
		l3.5,46c0.2,2.7,3.8,3.6,5.2,1.2l31.8-55.2c1.6-2.8,4.7-4.6,7.9-4.6l0,0C954.6,698.3,959.1,706,955.5,712.1z"/>
	<path class="st1" d="M999,785.5c0,4.1-3,7.5-7,8.1c-5.7,0.8-12.6,1.2-16.9,1.2c-8.3,0-15.2-1.6-20.8-4.8
		c-5.6-3.2-9.4-7.7-11.4-13.4c-2-5.7-2.2-12.2-0.4-19.5c1.8-7.2,5.1-13.7,9.9-19.4c4.8-5.8,10.6-10.3,17.4-13.5
		c6.8-3.2,13.8-4.8,21.2-4.8c7.2,0,13.3,1.5,18.4,4.6c5.1,3.1,8.5,7.5,10.4,13.3c1.9,5.8,1.9,12.5,0,20.1c0,0,0,0,0,0
		c-0.9,3.4-4.1,5.7-7.6,5.7h-49.7c-0.1,4.5,1.3,8.1,4.4,10.8c3.1,2.6,7.4,4,12.9,4c2,0,6.2-0.2,10.3-0.5
		C995,777,999,780.8,999,785.5L999,785.5z M974.1,739.5c-3.9,2.7-6.9,6.5-8.8,11.2h36.1c0.4-4.6-0.7-8.3-3.3-11.1
		c-2.6-2.8-6.2-4.2-11-4.2C982.4,735.4,978.1,736.8,974.1,739.5z"/>
	<path class="st0" d="M1155.1,712.1c2-4.3,4.3-8.5,7-12.5c1.8-2.7,3.8-5.2,6-7.7c-1.6-3.9-3.6-7.3-6-10.2c-7.7-9.4-19.2-14-34.6-14
		c-15.4,0-27.2,4.5-35.2,13.5c-7.2,8.1-11.5,20.2-12.6,36.3c-0.2,3.2-2.9,5.6-6,5.6h-33.5c0.1,1.7,0.2,3.2,0.2,4.5
		c0,4.2-0.4,8.3-1.2,12.5l0,0.1c-1.4,7,2.4,14.1,9.1,16.8l3,1.2c1.6-3.1,2.9-6.3,3.8-9.6c0.9-3.3,1.7-6.7,2.3-10.4h16
		c3.3,0,6,2.7,6,6v43.9c0,4.9,3.9,8.8,8.8,8.8l0,0c4.9,0,8.8-3.9,8.8-8.8V725c0-14.3,2.4-24.8,7.3-31.4c4.8-6.6,12.1-9.9,21.8-9.9
		c10,0,17.6,3.4,22.6,10.3C1151.8,698.3,1154,704.4,1155.1,712.1z"/>
	<path class="st0" d="M1253,798.9l0-0.1c-0.8-4.1-1.2-8.3-1.2-12.5c0-1.1,0.1-2.6,0.2-4.5h-78.3h-1c-0.3-5-0.6-9.9-0.9-14.7
		c-0.2-4.8-0.4,2-0.4-2.4c0-11.7,0.5-9.9,1.6-18.7c0.2-1.8,0.5-3.6,0.7-5.3c1-6.7,2.4-12.6,4.1-17.8c2.2-6.5,5-12,8.4-16.3
		c3.4-4.4,7.4-7.9,12.1-10.6c4.7-2.7,10.1-4.6,16.1-5.8c6-1.2,12.8-1.9,20.4-2.1c0.6,3.7,1.3,7.2,2.3,10.5c0.9,3.3,2.2,6.5,3.8,9.5
		l3-1.2c6.6-2.7,10.4-9.7,9-16.8l0-0.1c-0.8-4.1-1.2-8.3-1.2-12.5c0-1.3,0.1-3,0.2-5.1h-6.8c-9,0.1-17.5,0.5-25.5,1.4
		c-8,0.8-15.4,2.5-22.2,5.1c-3,1.1-5.8,2.5-8.4,4.1c-6.7,4.4-12.6,9.8-17.7,16.1c-0.1,0.2-0.3,0.4-0.4,0.6c0,0,0,0,0,0
		c-1,1.3-1.9,2.5-2.9,3.9c-0.7,1.1-1.5,2.2-2.1,3.3c-6.6,10.8-9.7,23.5-9.7,36.2l0,0v36.3c0,9.7,7.9,17.6,17.6,17.6l0,0h61.2
		c0.6,3.6,1.3,7.1,2.2,10.4c0.9,3.3,2.2,6.5,3.8,9.6l3-1.2C1250.6,813,1254.4,806,1253,798.9z"/>
</g>
<g>
	<path d="M159.7-358.7c2.1,2.3,3,5.3,2.6,9h-29.3c1.5-3.8,3.9-6.9,7.1-9.1c3.2-2.2,6.8-3.3,10.7-3.3
		C154.6-362.1,157.6-361,159.7-358.7z M182-361c-7.8,48.6,8.5,91.7,40,119c-28.1,19-61.1,30.2-94.9,30.2
		C44.7-211.8-11.3-278.6,1.9-361c13.3-82.4,90.9-149.2,173.3-149.2c33.8,0,63.2,11.3,85.2,30.2C220-452.8,189.8-409.6,182-361z
		 M177.2-360.6c-1.5-4.7-4.4-8.3-8.5-10.8c-4.1-2.5-9.1-3.8-14.9-3.8c-6,0-11.7,1.3-17.2,3.9c-1.4,0.7-2.8,1.5-4.2,2.3l13.4-23.3
		h-17.2l-31.6,54.9l-4.1-54.9l-16.6,0l-31.8,54.5l-4-54.5H22l6.3,77.5h19.2L78-367.2l4.1,52.5h19.3l12.1-21.1
		c0.1,2.5,0.5,4.9,1.3,7.2c1.7,4.7,4.7,8.3,9.3,10.9c4.5,2.6,10.1,3.9,16.9,3.9c5.2,0,15-0.7,19.4-2.2v-13
		c-2.6,0.9-12.4,1.4-15.5,1.4c-4.5,0-8-1.1-10.5-3.2c-2.5-2.1-3.7-5.1-3.6-8.7h45.1c0.9-2.9,1.4-4.4,1.5-4.7
		C178.8-350.5,178.8-355.9,177.2-360.6z"/>
	<path class="st0" d="M362.8-496.8c-76.1,0-147.8,61.7-160.1,137.9c-12.3,76.1,39.5,137.9,115.6,137.9
		c76.1,0,147.8-61.7,160.1-137.9S439-496.8,362.8-496.8z M321.7-318.2l11-60.7c2.2-12.2-5.9-22.2-18.2-22.2
		c-12.2,0-24,9.9-26.2,22.2l-11,60.7h-17.5l8.4-46.7h-13.2l-1.9,10.6h-17.5l5.1-28.1h30.9c5.4-20.3,25.3-36.2,46-36.2
		c21.9,0,36.4,17.8,32.5,39.6l-11,60.7H321.7z M433.7-388.3h-16.1l2.2-11.9h-10.9c-9.7,0-19.8,6-26.9,16.1
		c-4.1,5.7-6.9,12.4-8.1,19.2l-5.6,30.7H422l-5.2,28.7h-16.1l2.3-12.6h-53.7l8.5-46.8c1.7-9.4,5.6-18.7,11.3-26.7
		c10.8-15.2,27.2-24.6,42.7-24.6h27L433.7-388.3z"/>
</g>
<g>
	<path class="st2" d="M-668.6,102.7l-71.2,123.9h-30.8l-6.5-83.9l-48.9,83.9h-30.6l-10.1-123.9h29.7l6.4,87.1l50.8-87.1h26.6
		l6.6,87.8l50.6-87.8H-668.6z"/>
	<path class="st2" d="M-645.6,224.5c-7,2.4-22.7,3.6-31,3.6c-10.7,0-19.7-2.1-26.9-6.3c-7.2-4.2-12.2-10-14.8-17.4
		c-2.6-7.4-2.8-15.9-0.5-25.3c2.3-9.3,6.6-17.7,12.9-25.2c6.3-7.5,13.8-13.3,22.6-17.5c8.8-4.2,17.9-6.3,27.5-6.3
		c9.3,0,17.3,2,23.8,6c6.6,4,11.1,9.8,13.5,17.3c2.5,7.5,2.5,16.2,0,26.1c-0.1,0.4-0.9,2.8-2.4,7.4h-72c-0.2,5.9,1.8,10.6,5.7,14
		c4,3.4,9.6,5.1,16.8,5.1c5,0,20.6-0.7,24.8-2.2V224.5z M-677.9,156.2c-5.1,3.5-8.9,8.4-11.4,14.5l46.9,0c0.5-6-0.9-10.8-4.2-14.4
		c-3.4-3.6-8.1-5.4-14.2-5.4C-667.1,150.9-672.8,152.6-677.9,156.2z"/>
	<path class="st0" d="M-587.3,54.2l-34.6,202l212.2,0l34.6-202L-587.3,54.2z M-510,201.4l10-55.6c2-11.2-5.4-20.3-16.6-20.3
		c-11.2,0-21.9,9.1-24,20.3l-10,55.6h-16l7.7-42.7H-571l-1.7,9.7h-16l4.6-25.7h28.3c4.9-18.6,23.2-33.2,42.1-33.2
		c20,0,33.4,16.3,29.7,36.3l-10,55.6H-510z M-422.2,137.2l2-10.9h-10c-8.9,0-18.1,5.5-24.6,14.7c-3.7,5.3-6.3,11.3-7.4,17.6
		l-5.1,28.1h49.1l-4.8,26.3h-14.7l2.1-11.6h-49.1l7.7-42.9c1.6-8.6,5.2-17.1,10.4-24.5c9.9-13.9,24.9-22.6,39.1-22.6h24.7l-4.6,25.7
		H-422.2z"/>
	<polygon class="st0" points="-364.9,9.9 -371.5,48.6 -330.9,48.6 -324.3,9.9 	"/>
</g>
<g>
	<path class="st2" d="M159.7,151.5c2.1,2.3,3,5.3,2.6,9h-29.3c1.5-3.8,3.9-6.9,7.1-9.1c3.2-2.2,6.8-3.3,10.7-3.3
		C154.6,148.2,157.6,149.3,159.7,151.5z M182,149.2c-7.8,48.6,8.5,91.7,40,119c-28.1,19-61.1,30.2-94.9,30.2
		c-82.4,0-138.5-66.8-125.2-149.2C15.2,66.8,92.8,0,175.2,0c33.8,0,63.2,11.3,85.2,30.2C220,57.5,189.8,100.6,182,149.2z
		 M177.2,149.7c-1.5-4.7-4.4-8.3-8.5-10.8c-4.1-2.5-9.1-3.8-14.9-3.8c-6,0-11.7,1.3-17.2,3.9c-1.4,0.7-2.8,1.5-4.2,2.3l13.4-23.3
		h-17.2L97.1,173L92.9,118H76.3l-31.8,54.5l-4-54.5H22l6.3,77.5h19.2L78,143.1l4.1,52.5h19.3l12.1-21.1c0.1,2.5,0.5,4.9,1.3,7.2
		c1.7,4.7,4.7,8.3,9.3,10.9c4.5,2.6,10.1,3.9,16.9,3.9c5.2,0,15-0.7,19.4-2.2v-13c-2.6,0.9-12.4,1.4-15.5,1.4c-4.5,0-8-1.1-10.5-3.2
		c-2.5-2.1-3.7-5.1-3.6-8.7h45.1c0.9-2.9,1.4-4.4,1.5-4.7C178.8,159.8,178.8,154.3,177.2,149.7z"/>
	<path class="st0" d="M362.8,13.4c-76.1,0-147.8,61.7-160.1,137.9c-12.3,76.1,39.5,137.9,115.6,137.9c76.1,0,147.8-61.7,160.1-137.9
		C490.7,75.1,439,13.4,362.8,13.4z M321.7,192.1l11-60.7c2.2-12.2-5.9-22.2-18.2-22.2c-12.2,0-24,9.9-26.2,22.2l-11,60.7h-17.5
		l8.4-46.7h-13.2l-1.9,10.6h-17.5l5.1-28.1h30.9c5.4-20.3,25.3-36.2,46-36.2c21.9,0,36.4,17.8,32.5,39.6l-11,60.7H321.7z M433.7,122
		h-16.1l2.2-11.9h-10.9c-9.7,0-19.8,6-26.9,16.1c-4.1,5.7-6.9,12.4-8.1,19.2l-5.6,30.7H422l-5.2,28.7h-16.1l2.3-12.6l-53.7,0
		l8.5-46.8c1.7-9.4,5.6-18.7,11.3-26.7C380,103.4,396.3,94,411.8,94h27L433.7,122z"/>
</g>
<g>
	<path class="st1" d="M-668.6,612.5l-71.2,123.9h-30.8l-6.5-83.9l-48.9,83.9h-30.6l-10.1-123.9h29.7l6.4,87.1l50.8-87.1h26.6
		l6.6,87.8l50.6-87.8H-668.6z"/>
	<path class="st1" d="M-645.6,734.2c-7,2.4-22.7,3.6-31,3.6c-10.7,0-19.7-2.1-26.9-6.3c-7.2-4.2-12.2-10-14.8-17.4
		c-2.6-7.4-2.8-15.9-0.5-25.3c2.3-9.3,6.6-17.7,12.9-25.2c6.3-7.5,13.8-13.3,22.6-17.5c8.8-4.2,17.9-6.3,27.5-6.3
		c9.3,0,17.3,2,23.8,6c6.6,4,11.1,9.8,13.5,17.3c2.5,7.5,2.5,16.2,0,26.1c-0.1,0.4-0.9,2.8-2.4,7.4h-72c-0.2,5.9,1.8,10.6,5.7,14
		c4,3.4,9.6,5.1,16.8,5.1c5,0,20.6-0.7,24.8-2.2V734.2z M-677.9,665.9c-5.1,3.5-8.9,8.4-11.4,14.5h46.9c0.5-6-0.9-10.8-4.2-14.4
		c-3.4-3.6-8.1-5.4-14.2-5.4C-667.1,660.6-672.8,662.4-677.9,665.9z"/>
	<path class="st0" d="M-587.3,563.9l-34.6,202l212.2,0l34.6-202L-587.3,563.9z M-510,711.2l10-55.6c2-11.2-5.4-20.3-16.6-20.3
		c-11.2,0-21.9,9.1-24,20.3l-10,55.6h-16l7.7-42.7H-571l-1.7,9.7h-16l4.6-25.7l28.3,0c4.9-18.6,23.2-33.2,42.1-33.2
		c20,0,33.4,16.3,29.7,36.3l-10,55.6H-510z M-422.2,647l2-10.9h-10c-8.9,0-18.1,5.5-24.6,14.7c-3.7,5.3-6.3,11.3-7.4,17.6l-5.1,28.1
		h49.1l-4.8,26.3h-14.7l2.1-11.6h-49.1l7.7-42.9c1.6-8.6,5.2-17.1,10.4-24.5c9.9-13.9,24.9-22.6,39.1-22.6h24.7l-4.6,25.7H-422.2z"
		/>
	<polygon class="st0" points="-364.9,519.6 -371.5,558.3 -330.9,558.3 -324.3,519.6 	"/>
</g>
<g>
	<path class="st1" d="M159.7,661.3c2.1,2.3,3,5.3,2.6,9h-29.3c1.5-3.8,3.9-6.9,7.1-9.1c3.2-2.2,6.8-3.3,10.7-3.3
		C154.6,657.9,157.6,659,159.7,661.3z M182,659c-7.8,48.6,8.5,91.7,40,119c-28.1,19-61.1,30.2-94.9,30.2
		C44.7,808.2-11.3,741.4,1.9,659c13.3-82.4,90.9-149.2,173.3-149.2c33.8,0,63.2,11.3,85.2,30.2C220,567.2,189.8,610.4,182,659z
		 M177.2,659.4c-1.5-4.7-4.4-8.3-8.5-10.8c-4.1-2.5-9.1-3.8-14.9-3.8c-6,0-11.7,1.3-17.2,3.9c-1.4,0.7-2.8,1.5-4.2,2.3l13.4-23.3
		h-17.2l-31.6,54.9l-4.1-54.9H76.3l-31.8,54.5l-4-54.5H22l6.3,77.5h19.2L78,652.8l4.1,52.5h19.3l12.1-21.1c0.1,2.5,0.5,4.9,1.3,7.2
		c1.7,4.7,4.7,8.3,9.3,10.9c4.5,2.6,10.1,3.9,16.9,3.9c5.2,0,15-0.7,19.4-2.2v-13c-2.6,0.9-12.4,1.4-15.5,1.4c-4.5,0-8-1.1-10.5-3.2
		c-2.5-2.1-3.7-5.1-3.6-8.7h45.1c0.9-2.9,1.4-4.4,1.5-4.7C178.8,669.5,178.8,664.1,177.2,659.4z"/>
	<path class="st0" d="M362.8,523.2c-76.1,0-147.8,61.7-160.1,137.9c-12.3,76.1,39.5,137.9,115.6,137.9
		c76.1,0,147.8-61.7,160.1-137.9C490.7,584.9,439,523.2,362.8,523.2z M321.7,701.8l11-60.7c2.2-12.2-5.9-22.2-18.2-22.2
		c-12.2,0-24,9.9-26.2,22.2l-11,60.7h-17.5l8.4-46.7h-13.2l-1.9,10.6h-17.5l5.1-28.1h30.9c5.4-20.3,25.3-36.2,46-36.2
		c21.9,0,36.4,17.8,32.5,39.6l-11,60.7H321.7z M433.7,631.7h-16.1l2.2-11.9h-10.9c-9.7,0-19.8,6-26.9,16.1
		c-4.1,5.7-6.9,12.4-8.1,19.2l-5.6,30.7H422l-5.2,28.7h-16.1l2.3-12.6l-53.7,0l8.5-46.8c1.7-9.4,5.6-18.7,11.3-26.7
		c10.8-15.2,27.2-24.6,42.7-24.6h27L433.7,631.7z"/>
</g>
</svg>
